<?xml version="1.0" encoding="UTF-8"?>
<!DOCTYPE svg PUBLIC "-//W3C//DTD SVG 1.1//EN" "http://www.w3.org/Graphics/SVG/1.1/DTD/svg11.dtd">
<!-- Creator: CorelDRAW -->
<svg xmlns="http://www.w3.org/2000/svg" xml:space="preserve" width="6.82666in" height="6.82666in" style="shape-rendering:geometricPrecision; text-rendering:geometricPrecision; image-rendering:optimizeQuality; fill-rule:evenodd; clip-rule:evenodd"
viewBox="0 0 6.82666 6.82666"
 xmlns:xlink="http://www.w3.org/1999/xlink"
 version="1.1">
 <defs>
  <style type="text/css">
   <![CDATA[
    .fil1 {fill:none}
    .fil0 {fill:#424242}
   ]]>
  </style>
 </defs>
 <g id="Layer_x0020_1">
  <metadata id="CorelCorpID_0Corel-Layer"/>
  <g id="Guides">
  </g>
  <g id="Layer_2">
  </g>
  <g id="Layer_3">
  </g>
  <g id="Layer_4">
  </g>
  <g id="Layer_5">
  </g>
  <g id="Layer_6">
  </g>
  <g id="Layer_8">
  </g>
  <g id="Layer_9">
  </g>
  <g id="Layer_10">
  </g>
  <g id="Layer_11">
  </g>
  <g id="Layer_12">
  </g>
  <g id="Layer_13">
  </g>
  <g id="Layer_14">
  </g>
  <g id="Layer_15">
  </g>
  <g id="Layer_16">
  </g>
  <g id="Layer_17">
  </g>
  <g id="Layer_18">
  </g>
  <g id="Layer_19">
  </g>
  <g id="Layer_20">
  </g>
  <g id="Layer_21">
  </g>
  <g id="Layer_22">
  </g>
  <g id="Layer_23">
  </g>
  <g id="Layer_24">
  </g>
  <g id="Layer_25">
  </g>
  <g id="Layer_26">
  </g>
  <g id="_394408824">
   <g id="Layer_1">
   </g>
   <g id="Layer_2_0">
   </g>
   <g id="Layer_3_1">
   </g>
   <g id="Layer_4_2">
   </g>
   <g id="Layer_5_3">
   </g>
   <g id="Layer_6_4">
   </g>
   <g id="Layer_7">
    <path id="_394410768" class="fil0" d="M5.50066 0.853335l-4.17466 0c-0.261,0 -0.472665,0.211665 -0.472665,0.472665l0 4.17466c0,0.261 0.211665,0.472665 0.472665,0.472665l4.17466 0c0.261,0 0.472665,-0.211665 0.472665,-0.472665l0 -4.17466c0,-0.261 -0.211665,-0.472665 -0.472665,-0.472665zm-1.667 3.89866l-0.464661 0 0 -2.00699c-0.061,0.046 -0.130335,0.092 -0.207665,0.137335 -0.131335,0.077 -0.251335,0.135665 -0.357,0.174335l-0.0923346 0.0339961 0 -0.459 0.0396654 -0.0186654c0.176665,-0.083 0.333335,-0.184335 0.465,-0.302 0.13,-0.116 0.222996,-0.229 0.275996,-0.335665l0.019 -0.0383346 0.322 0 0 2.81499z"/>
   </g>
   <g id="Layer_8_5">
   </g>
   <g id="Layer_9_6">
   </g>
   <g id="Layer_10_7">
   </g>
   <g id="Layer_11_8">
   </g>
   <g id="Layer_12_9">
   </g>
   <g id="Layer_13_10">
   </g>
   <g id="Layer_14_11">
   </g>
   <g id="Layer_15_12">
   </g>
   <g id="Layer_16_13">
   </g>
   <g id="Layer_17_14">
   </g>
   <g id="Layer_18_15">
   </g>
   <g id="Layer_19_16">
   </g>
   <g id="Layer_20_17">
   </g>
   <g id="Layer_21_18">
   </g>
   <g id="Layer_22_19">
   </g>
   <g id="Layer_23_20">
   </g>
   <g id="Layer_24_21">
   </g>
   <g id="Layer_25_22">
   </g>
   <g id="Layer_26_23">
   </g>
  </g>
 </g>
 <rect class="fil1" width="6.82667" height="6.82667"/>
</svg>
