<?xml version="1.0" encoding="UTF-8"?>
<!DOCTYPE svg PUBLIC "-//W3C//DTD SVG 1.1//EN" "http://www.w3.org/Graphics/SVG/1.1/DTD/svg11.dtd">
<!-- Creator: CorelDRAW -->
<svg xmlns="http://www.w3.org/2000/svg" xml:space="preserve" width="6.82666in" height="6.82666in" style="shape-rendering:geometricPrecision; text-rendering:geometricPrecision; image-rendering:optimizeQuality; fill-rule:evenodd; clip-rule:evenodd"
viewBox="0 0 6.82666 6.82666"
 xmlns:xlink="http://www.w3.org/1999/xlink"
 version="1.1">
 <defs>
  <style type="text/css">
   <![CDATA[
    .fil1 {fill:none}
    .fil0 {fill:#424242}
   ]]>
  </style>
 </defs>
 <g id="Layer_x0020_1">
  <metadata id="CorelCorpID_0Corel-Layer"/>
  <g id="Guides">
  </g>
  <g id="Layer_2">
  </g>
  <g id="Layer_3">
  </g>
  <g id="Layer_4">
  </g>
  <g id="Layer_5">
  </g>
  <g id="Layer_6">
  </g>
  <g id="Layer_7">
  </g>
  <g id="Layer_9">
  </g>
  <g id="Layer_10">
  </g>
  <g id="Layer_11">
  </g>
  <g id="Layer_12">
  </g>
  <g id="Layer_13">
  </g>
  <g id="Layer_14">
  </g>
  <g id="Layer_15">
  </g>
  <g id="Layer_16">
  </g>
  <g id="Layer_17">
  </g>
  <g id="Layer_18">
  </g>
  <g id="Layer_19">
  </g>
  <g id="Layer_20">
  </g>
  <g id="Layer_21">
  </g>
  <g id="Layer_22">
  </g>
  <g id="Layer_23">
  </g>
  <g id="Layer_24">
  </g>
  <g id="Layer_25">
  </g>
  <g id="Layer_26">
  </g>
  <g id="_394415640">
   <g id="Layer_1">
   </g>
   <g id="Layer_2_0">
   </g>
   <g id="Layer_3_1">
   </g>
   <g id="Layer_4_2">
   </g>
   <g id="Layer_5_3">
   </g>
   <g id="Layer_6_4">
   </g>
   <g id="Layer_7_5">
   </g>
   <g id="Layer_8">
    <path id="_394418040" class="fil0" d="M5.50066 0.853335l-4.17466 0c-0.261,0 -0.472665,0.211665 -0.472665,0.472665l0 4.17466c0,0.261 0.211665,0.472665 0.472665,0.472665l4.17466 0c0.261,0 0.472665,-0.211665 0.472665,-0.472665l0 -4.17466c0,-0.261 -0.211665,-0.472665 -0.472665,-0.472665zm-1.17833 3.89866l-1.90066 0 -0.002 -0.0666654c-0.00266535,-0.0876654 0.0116654,-0.173 0.043,-0.253665 0.0476654,-0.127 0.124665,-0.252665 0.229,-0.374335 0.101665,-0.118665 0.248665,-0.257 0.437,-0.411 0.282996,-0.233665 0.476661,-0.419996 0.575331,-0.553331 0.093,-0.126 0.140335,-0.244665 0.140335,-0.353335 0,-0.111 -0.0386654,-0.202 -0.118,-0.278 -0.0803346,-0.077 -0.183665,-0.114335 -0.315665,-0.114335 -0.140331,0 -0.248331,0.0396654 -0.330331,0.121335 -0.082,0.0816654 -0.122665,0.194335 -0.123665,0.343665l-0.000665354 0.0756654 -0.480335 -0.049 0.00633465 -0.068c0.0246654,-0.268 0.12,-0.476 0.283665,-0.619 0.162661,-0.142327 0.381992,-0.214657 0.651657,-0.214657 0.273335,0 0.494,0.078 0.656,0.232 0.163,0.155 0.245665,0.349335 0.245665,0.577665 0,0.115665 -0.024,0.230665 -0.071,0.341665 -0.0466654,0.109665 -0.123665,0.225665 -0.229665,0.344661 -0.103,0.116 -0.275335,0.276 -0.511665,0.476335 -0.193996,0.162665 -0.319331,0.273665 -0.373331,0.330335 -0.0193346,0.0203346 -0.0373346,0.0406654 -0.0543346,0.0613346l1.24366 -3.93701e-006 0 0.450665 -0.000334646 0z"/>
   </g>
   <g id="Layer_9_6">
   </g>
   <g id="Layer_10_7">
   </g>
   <g id="Layer_11_8">
   </g>
   <g id="Layer_12_9">
   </g>
   <g id="Layer_13_10">
   </g>
   <g id="Layer_14_11">
   </g>
   <g id="Layer_15_12">
   </g>
   <g id="Layer_16_13">
   </g>
   <g id="Layer_17_14">
   </g>
   <g id="Layer_18_15">
   </g>
   <g id="Layer_19_16">
   </g>
   <g id="Layer_20_17">
   </g>
   <g id="Layer_21_18">
   </g>
   <g id="Layer_22_19">
   </g>
   <g id="Layer_23_20">
   </g>
   <g id="Layer_24_21">
   </g>
   <g id="Layer_25_22">
   </g>
   <g id="Layer_26_23">
   </g>
  </g>
 </g>
 <rect class="fil1" width="6.82667" height="6.82667"/>
</svg>
