<?xml version="1.0" encoding="UTF-8"?>
<!DOCTYPE svg PUBLIC "-//W3C//DTD SVG 1.1//EN" "http://www.w3.org/Graphics/SVG/1.1/DTD/svg11.dtd">
<!-- Creator: CorelDRAW -->
<svg xmlns="http://www.w3.org/2000/svg" xml:space="preserve" width="6.82666in" height="6.82666in" style="shape-rendering:geometricPrecision; text-rendering:geometricPrecision; image-rendering:optimizeQuality; fill-rule:evenodd; clip-rule:evenodd"
viewBox="0 0 6.82666 6.82666"
 xmlns:xlink="http://www.w3.org/1999/xlink"
 version="1.1">
 <defs>
  <style type="text/css">
   <![CDATA[
    .fil1 {fill:none}
    .fil0 {fill:#424242}
   ]]>
  </style>
 </defs>
 <g id="Layer_x0020_1">
  <metadata id="CorelCorpID_0Corel-Layer"/>
  <g id="Guides">
  </g>
  <g id="Layer_2">
  </g>
  <g id="Layer_3">
  </g>
  <g id="Layer_4">
  </g>
  <g id="Layer_5">
  </g>
  <g id="Layer_6">
  </g>
  <g id="Layer_7">
  </g>
  <g id="Layer_8">
  </g>
  <g id="Layer_10">
  </g>
  <g id="Layer_11">
  </g>
  <g id="Layer_12">
  </g>
  <g id="Layer_13">
  </g>
  <g id="Layer_14">
  </g>
  <g id="Layer_15">
  </g>
  <g id="Layer_16">
  </g>
  <g id="Layer_17">
  </g>
  <g id="Layer_18">
  </g>
  <g id="Layer_19">
  </g>
  <g id="Layer_20">
  </g>
  <g id="Layer_21">
  </g>
  <g id="Layer_22">
  </g>
  <g id="Layer_23">
  </g>
  <g id="Layer_24">
  </g>
  <g id="Layer_25">
  </g>
  <g id="Layer_26">
  </g>
  <g id="_394423008">
   <g id="Layer_1">
   </g>
   <g id="Layer_2_0">
   </g>
   <g id="Layer_3_1">
   </g>
   <g id="Layer_4_2">
   </g>
   <g id="Layer_5_3">
   </g>
   <g id="Layer_6_4">
   </g>
   <g id="Layer_7_5">
   </g>
   <g id="Layer_8_6">
   </g>
   <g id="Layer_9">
    <path id="_394424712" class="fil0" d="M5.50066 0.853335l-4.17466 0c-0.261,0 -0.472665,0.211665 -0.472665,0.472665l0 4.17466c0,0.261 0.211665,0.472665 0.472665,0.472665l4.17466 0c0.261,0 0.472665,-0.211665 0.472665,-0.472665l0 -4.17466c0,-0.261 -0.211665,-0.472665 -0.472665,-0.472665zm-1.42733 3.68233c-0.182335,0.173335 -0.415,0.261335 -0.691996,0.261335 -0.250665,0 -0.462665,-0.0763346 -0.629665,-0.226665 -0.167335,-0.150335 -0.264,-0.347335 -0.287335,-0.585665l-0.00633465 -0.066 0.456335 -0.0623346 0.013 0.0633346c0.0343346,0.169665 0.0916654,0.292 0.170335,0.363335 0.0776654,0.0703346 0.171,0.104665 0.285335,0.104665 0.137661,0 0.249661,-0.0456654 0.342996,-0.139335 0.0933346,-0.094 0.138665,-0.207335 0.138665,-0.347 0,-0.132 -0.0416654,-0.237335 -0.127335,-0.322 -0.086,-0.085 -0.192665,-0.126335 -0.327,-0.126335 -0.0556614,0 -0.127661,0.0113346 -0.213996,0.034l-0.0986654 0.026 0.058 -0.453996 0.0673346 0.00733465c0.0236654,0.00266535 0.0376654,0.00333465 0.0453346,0.00333465 0.125661,0 0.239661,-0.033 0.339661,-0.098 0.0916654,-0.06 0.136335,-0.151335 0.136335,-0.279665 0,-0.101665 -0.033,-0.183335 -0.101,-0.249665 -0.0686654,-0.0666654 -0.156,-0.099 -0.266661,-0.099 -0.11,0 -0.198665,0.0333346 -0.271,0.101665 -0.073,0.069 -0.121,0.177335 -0.143,0.321665l-0.0106654 0.07 -0.464673 -0.0833386 0.0123346 -0.068c0.0426654,-0.234665 0.142335,-0.419665 0.296,-0.550665 0.153996,-0.130665 0.347331,-0.197331 0.573996,-0.197331 0.155996,0 0.301661,0.034 0.433331,0.101335 0.133665,0.068 0.237335,0.163 0.308665,0.281335 0.071,0.118335 0.107335,0.246 0.107335,0.379335 0,0.128335 -0.035,0.246665 -0.104,0.352335 -0.0426654,0.0653346 -0.098,0.122335 -0.165665,0.171 0.103335,0.0463346 0.189,0.113665 0.255665,0.200996 0.096,0.126 0.145,0.284665 0.145,0.471 -0.000334646,0.250992 -0.0933346,0.466657 -0.276665,0.640992z"/>
   </g>
   <g id="Layer_10_7">
   </g>
   <g id="Layer_11_8">
   </g>
   <g id="Layer_12_9">
   </g>
   <g id="Layer_13_10">
   </g>
   <g id="Layer_14_11">
   </g>
   <g id="Layer_15_12">
   </g>
   <g id="Layer_16_13">
   </g>
   <g id="Layer_17_14">
   </g>
   <g id="Layer_18_15">
   </g>
   <g id="Layer_19_16">
   </g>
   <g id="Layer_20_17">
   </g>
   <g id="Layer_21_18">
   </g>
   <g id="Layer_22_19">
   </g>
   <g id="Layer_23_20">
   </g>
   <g id="Layer_24_21">
   </g>
   <g id="Layer_25_22">
   </g>
   <g id="Layer_26_23">
   </g>
  </g>
 </g>
 <rect class="fil1" width="6.82667" height="6.82667"/>
</svg>
